<?xml version="1.0" encoding="UTF-8" standalone="no"?>
<!DOCTYPE svg PUBLIC "-//W3C//DTD SVG 1.1//EN" "http://www.w3.org/Graphics/SVG/1.1/DTD/svg11.dtd">
<svg width="100%" height="100%" viewBox="0 0 720 520" version="1.1" xmlns="http://www.w3.org/2000/svg" xmlns:xlink="http://www.w3.org/1999/xlink" xml:space="preserve" xmlns:serif="http://www.serif.com/" style="fill-rule:evenodd;clip-rule:evenodd;">
    <path d="M720,32L720,488C720,505.661 705.661,520 688,520L32,520C14.339,520 0,505.661 0,488L0,32C0,14.339 14.339,0 32,0L688,0C705.661,0 720,14.339 720,32Z" style="fill:rgb(255,244,244);"/>
    <circle cx="360" cy="208" r="112" style="fill:rgb(255,217,217);"/>
    <circle cx="360" cy="208" r="78" style="fill:rgb(255,159,159);"/>
    <path d="M330,206C330,190.536 342.536,178 358,178L362,178C377.464,178 390,190.536 390,206L390,264L330,264L330,206Z" style="fill:rgb(198,40,40);fill-rule:nonzero;"/>
    <path d="M304,270L416,270C424.837,270 432,277.163 432,286L432,298C432,315.673 417.673,330 400,330L320,330C302.327,330 288,315.673 288,298L288,286C288,277.163 295.163,270 304,270Z" style="fill:rgb(255,230,230);fill-rule:nonzero;stroke:rgb(198,40,40);stroke-width:10px;"/>
    <path d="M314,286L406,286" style="fill:none;fill-rule:nonzero;stroke:rgb(198,40,40);stroke-width:10px;stroke-linecap:round;"/>
    <path d="M327,304L393,304" style="fill:none;fill-rule:nonzero;stroke:rgb(198,40,40);stroke-width:10px;stroke-linecap:round;"/>
    <path d="M260,122L283,152" style="fill:none;fill-rule:nonzero;stroke:rgb(198,40,40);stroke-width:10px;stroke-linecap:round;"/>
    <path d="M457,122L434,152" style="fill:none;fill-rule:nonzero;stroke:rgb(198,40,40);stroke-width:10px;stroke-linecap:round;"/>
    <path d="M214,397C258,358 307,339 360,339C413,339 462,358 506,397" style="fill:none;fill-rule:nonzero;stroke:rgb(198,40,40);stroke-width:16px;stroke-linecap:round;"/>
    <path d="M360,85L371.899,109.101L398.502,112.965L379.251,131.732L383.797,158.229L360,145.718L336.203,158.229L340.749,131.732L321.498,112.965L348.101,109.101L360,85Z" style="fill:rgb(198,40,40);fill-rule:nonzero;"/>
    <g transform="matrix(1,0,0,1,360,448)">
        <g transform="matrix(34,0,0,34,286.186,0)">
        </g>
        <text x="-286.186px" y="0px" style="font-family:'Helvetica-Bold', 'Helvetica';font-weight:700;font-size:34px;fill:rgb(166,31,31);">Solicite evaluación con odontólogo</text>
    </g>
</svg>
